HIERARCHY
ROOT root
{
	OFFSET 0.000000 0.000000 0.000000
	CHANNELS 6 Xposition Yposition Zposition Zrotation Yrotation Xrotation
	JOINT lhip
	{
		OFFSET 0.058581 -0.082280 -0.017664
		CHANNELS 3 Zrotation Yrotation Xrotation
		JOINT lknee
		{
			OFFSET 0.043451 -0.386469 0.008037
			CHANNELS 3 Zrotation Yrotation Xrotation
			JOINT lankle
			{
				OFFSET -0.014790 -0.426874 -0.037428
				CHANNELS 3 Zrotation Yrotation Xrotation
				JOINT ltoe
				{
					OFFSET 0.041054 -0.060286 0.122042
					CHANNELS 3 Zrotation Yrotation Xrotation
					End Site
					{
						OFFSET 0.000000 0.000000 0.000000
					}
				}
			}
		}
	}
	JOINT rhip
	{
		OFFSET -0.060310 -0.090513 -0.013543
		CHANNELS 3 Zrotation Yrotation Xrotation
		JOINT rknee
		{
			OFFSET -0.043257 -0.383688 -0.004843
			CHANNELS 3 Zrotation Yrotation Xrotation
			JOINT rankle
			{
				OFFSET 0.019056 -0.420046 -0.034562
				CHANNELS 3 Zrotation Yrotation Xrotation
				JOINT rtoe
				{
					OFFSET -0.034840 -0.062106 0.130323
					CHANNELS 3 Zrotation Yrotation Xrotation
					End Site
					{
						OFFSET 0.000000 0.000000 0.000000
					}
				}
			}
		}
	}
	JOINT lowerback
	{
		OFFSET 0.004439 0.124404 -0.038385
		CHANNELS 3 Zrotation Yrotation Xrotation
		JOINT upperback
		{
			OFFSET 0.004488 0.137956 0.026820
			CHANNELS 3 Zrotation Yrotation Xrotation
			JOINT chest
			{
				OFFSET -0.002265 0.056032 0.002855
				CHANNELS 3 Zrotation Yrotation Xrotation
				JOINT lowerneck
				{
					OFFSET -0.013390 0.211636 -0.033468
					CHANNELS 3 Zrotation Yrotation Xrotation
					JOINT upperneck
					{
						OFFSET 0.010113 0.088937 0.050410
						CHANNELS 3 Zrotation Yrotation Xrotation
						End Site
						{
							OFFSET 0.000000 0.000000 0.000000
						}
					}
				}
				JOINT lclavicle
				{
					OFFSET 0.071702 0.114000 -0.018898
					CHANNELS 3 Zrotation Yrotation Xrotation
					JOINT lshoulder
					{
						OFFSET 0.122921 0.045205 -0.019046
						CHANNELS 3 Zrotation Yrotation Xrotation
						JOINT lelbow
						{
							OFFSET 0.255332 -0.015649 -0.022946
							CHANNELS 3 Zrotation Yrotation Xrotation
							JOINT lwrist
							{
								OFFSET 0.265709 0.012698 -0.007375
								CHANNELS 3 Zrotation Yrotation Xrotation
								End Site
								{
									OFFSET 0.000000 0.000000 0.000000
								}
							}
						}
					}
				}
				JOINT rclavicle
				{
					OFFSET -0.082954 0.112472 -0.023707
					CHANNELS 3 Zrotation Yrotation Xrotation
					JOINT rshoulder
					{
						OFFSET -0.113228 0.046853 -0.008472
						CHANNELS 3 Zrotation Yrotation Xrotation
						JOINT relbow
						{
							OFFSET -0.260127 -0.014369 -0.031269
							CHANNELS 3 Zrotation Yrotation Xrotation
							JOINT rwrist
							{
								OFFSET -0.269108 0.006794 -0.006027
								CHANNELS 3 Zrotation Yrotation Xrotation
								End Site
								{
									OFFSET 0.000000 0.000000 0.000000
								}
							}
						}
					}
				}
			}
		}
	}
}
MOTION
Frames: 7
Frame Time: 0.033333
0.019777 0.068040 0.671100 -54.487619 22.055501 127.972189 15.694969 21.777710 -75.094233 -9.701491 16.500730 116.577906 -0.768833 -0.703688 -29.133152 0.000000 -0.000000 0.000000 -9.824797 -28.253251 -57.603330 2.468985 -19.114451 94.563408 12.675648 8.080623 -17.429326 0.000000 -0.000000 0.000000 2.357442 4.124046 74.036788 -0.823273 -2.140253 -8.993385 4.408258 -2.233133 -2.795412 9.073013 -2.097955 5.298810 18.442841 1.065186 -16.453206 1.056447 -24.812332 -3.332199 1.682283 -9.402029 -8.243269 16.747167 -17.726954 -27.792577 51.057217 2.394718 -27.552061 -5.138460 42.404842 -8.206834 35.883723 38.494793 -46.046736 38.659056 40.658938 99.113127 -37.706234 -45.174418 -68.954223 
0.023017 0.089520 0.662729 -53.037385 19.836544 127.967240 15.578728 21.252025 -76.907812 -10.912515 16.546735 117.146748 -0.743335 -1.871483 -30.690990 0.000000 -0.000000 0.000000 -10.891787 -29.084279 -59.378700 2.528602 -18.516611 98.512590 12.221718 8.913083 -18.653576 0.000000 -0.000000 0.000000 2.990537 3.727989 72.485550 0.563626 -3.613803 -8.839072 4.461696 -2.890180 -2.298601 9.689378 -1.474962 5.242650 18.306221 -0.076637 -17.017864 2.502237 -26.427660 -2.621584 1.527282 -6.975000 -9.162310 15.053050 -15.886752 -25.075962 49.712234 2.057712 -26.169429 -6.346911 42.256280 -9.099831 36.689112 38.954764 -48.459416 41.300852 37.595215 105.654869 -35.630177 -47.428448 -72.562343 
0.028149 0.113701 0.653968 -51.699359 18.115511 128.082622 15.650931 21.156819 -79.408438 -11.588724 16.156794 118.490493 -2.783802 -1.228659 -31.193201 0.000000 -0.000000 0.000000 -11.603445 -28.892542 -61.697425 2.477317 -18.217807 102.553555 11.372544 9.173306 -20.172990 0.000000 -0.000000 0.000000 2.983453 2.840949 70.895202 1.325617 -4.454813 -9.188924 4.561638 -3.116064 -2.394566 9.847743 -2.308594 6.812644 17.862700 -1.254289 -16.914398 4.290275 -27.141816 -1.251608 0.374304 -5.214584 -9.735537 14.087091 -14.888829 -22.755076 46.545534 1.561184 -25.742078 -7.876097 42.224080 -9.227442 39.030371 40.026001 -49.079357 42.172167 36.488466 107.702723 -34.848006 -48.274247 -73.505555 
0.033481 0.137411 0.644320 -50.916625 16.638093 127.649817 16.120629 21.611033 -81.490427 -11.556026 16.346835 119.998063 -2.024218 0.014264 -31.960379 0.000000 -0.000000 0.000000 -12.375593 -28.603760 -63.818921 2.878064 -18.086924 106.328285 9.778013 8.693826 -21.543231 0.000000 -0.000000 0.000000 2.665020 2.674482 69.274902 2.191357 -4.687639 -9.154510 4.470823 -3.224955 -1.886748 10.217486 -1.198916 5.257299 18.054389 -2.900323 -16.476655 6.148332 -27.579209 -1.026568 -0.452384 -4.633599 -9.943117 13.469350 -14.254570 -19.605695 41.597651 1.693573 -26.391292 -8.678699 41.804381 -9.242471 39.913239 41.008870 -50.158199 42.824651 35.129924 108.867254 -35.259958 -48.845084 -72.919005 
0.039528 0.159831 0.633555 -50.305774 15.017419 127.105857 16.067469 22.191383 -83.839218 -10.724067 16.937658 121.650057 0.035137 2.275462 -33.474649 0.000000 -0.000000 0.000000 -13.379070 -28.658103 -65.957241 3.505238 -17.704221 110.098256 9.387982 9.522107 -21.894744 0.000000 -0.000000 0.000000 2.657417 2.595007 67.638253 2.932712 -4.800898 -9.443981 4.487021 -3.772770 -1.363782 9.773241 -2.085045 5.711525 18.082437 -3.381341 -16.766387 6.975522 -28.315032 -0.370036 -0.484522 -4.142670 -10.775449 13.374985 -13.727543 -18.536934 39.695703 1.796162 -25.079968 -9.745355 41.290429 -9.832290 41.358316 41.790318 -50.136010 42.537346 33.831744 108.586302 -36.490640 -49.192160 -71.782152 
0.045683 0.180855 0.623079 -49.826553 13.553580 126.007399 16.200397 22.842497 -85.389870 -10.444255 17.917461 123.132077 -0.046672 1.728340 -32.645404 0.000000 -0.000000 0.000000 -14.322967 -29.126857 -67.489769 3.553072 -17.406622 113.882448 8.774443 9.936057 -22.749207 0.000000 -0.000000 0.000000 2.570631 2.474055 66.416695 3.542458 -5.103021 -9.164272 4.432362 -3.987079 -1.168286 9.643429 -2.306648 5.581707 17.919966 -4.419263 -16.691881 7.923795 -28.732208 -0.018797 -0.544438 -3.576644 -10.792692 13.576155 -15.048753 -17.638283 36.155353 2.015921 -26.229702 -10.393393 41.635450 -9.424222 41.069817 42.440139 -51.077453 42.370086 33.592222 108.145802 -35.966930 -49.682079 -71.953349 
0.052511 0.200238 0.612180 -49.332294 12.104236 124.831235 16.179076 23.040388 -86.794267 -10.931127 18.592484 124.430176 -0.178817 0.790989 -33.244756 0.000000 -0.000000 0.000000 -15.160155 -29.954178 -69.027287 3.238933 -17.321571 117.676326 8.153075 9.892363 -23.639343 0.000000 -0.000000 0.000000 2.664705 2.194727 65.321241 4.012278 -5.332819 -9.126844 4.380837 -4.198439 -0.868185 9.316064 -2.827455 5.555868 17.966654 -5.092581 -16.765704 8.516500 -29.485768 0.282705 -0.545891 -3.648651 -10.665879 13.919745 -16.793301 -18.278733 35.785558 2.491840 -27.445440 -10.908435 42.043471 -9.340112 40.829408 42.727454 -51.299310 41.936468 33.685112 107.687802 -35.090719 -50.109357 -72.987356 
